<?xml version="1.0" standalone="no"?>
<!DOCTYPE svg PUBLIC "-//W3C//DTD SVG 20010904//EN"
 "http://www.w3.org/TR/2001/REC-SVG-20010904/DTD/svg10.dtd">
<svg version="1.0" xmlns="http://www.w3.org/2000/svg"
 width="344.000000pt" height="344.000000pt" viewBox="0 0 344.000000 344.000000"
 preserveAspectRatio="xMidYMid meet">

<g transform="translate(0.000000,344.000000) scale(0.100000,-0.100000)"
fill="#000000" stroke="none">
<path d="M1166 3199 c-460 -67 -824 -416 -911 -872 -21 -110 -19 -301 4 -412
43 -207 134 -377 286 -531 110 -112 184 -166 308 -224 294 -140 625 -139 929
2 l89 41 44 -43 c41 -40 44 -46 39 -84 l-6 -41 281 -350 282 -350 -647 -5
c-624 -5 -646 -6 -660 -24 -20 -28 -17 -63 6 -86 20 -20 33 -20 1005 -20 972
0 985 0 1005 20 42 42 17 100 -49 109 l-41 6 35 50 c113 159 94 395 -44 533
-35 34 -673 551 -708 573 -18 10 -29 11 -52 2 -27 -10 -32 -8 -76 37 l-46 47
39 79 c166 333 145 730 -54 1052 -58 93 -223 262 -314 321 -223 145 -493 207
-744 170z m259 -130 c455 -56 800 -423 832 -885 25 -364 -185 -727 -517 -894
-156 -79 -287 -105 -477 -97 -349 15 -648 215 -803 538 -68 143 -84 219 -84
404 1 145 3 168 28 250 85 281 259 484 520 605 162 76 320 101 501 79z m778
-1647 l37 -38 -90 -89 -90 -89 -39 38 -38 38 86 87 c47 49 88 89 91 90 3 0 23
-16 43 -37z m517 -345 c303 -245 326 -266 355 -321 74 -145 15 -321 -131 -392
-105 -51 -249 -28 -326 53 -15 15 -137 165 -272 333 l-245 305 142 143 c78 78
144 142 147 142 3 0 151 -118 330 -263z"/>
<path d="M1119 2920 c-406 -100 -672 -499 -608 -912 41 -262 207 -488 444
-603 118 -58 187 -75 321 -82 218 -11 401 52 576 200 108 91 215 269 253 422
22 85 25 264 6 350 -31 144 -113 298 -214 403 -95 99 -247 185 -391 222 -104
26 -279 26 -387 0z m401 -140 c109 -36 189 -87 275 -174 133 -135 195 -282
195 -468 0 -115 -12 -178 -52 -275 l-30 -73 -458 0 c-330 0 -466 -3 -485 -12
-46 -21 -46 -95 0 -116 18 -9 143 -12 428 -12 l402 -1 -45 -39 c-99 -88 -295
-160 -432 -160 -260 0 -502 152 -613 385 -24 50 -49 115 -56 145 -19 78 -16
241 5 320 17 61 65 169 88 197 8 10 81 13 324 13 218 0 321 4 339 12 28 13 40
45 31 81 -10 42 -41 47 -309 47 l-252 1 30 25 c47 39 184 103 255 119 94 21
275 14 360 -15z"/>
<path d="M1562 2640 c-53 -22 -51 -99 3 -120 74 -28 122 85 50 118 -14 7 -27
12 -28 11 -1 0 -12 -4 -25 -9z"/>
<path d="M957 2440 c-84 -21 -154 -77 -195 -154 -23 -44 -27 -63 -27 -136 0
-69 4 -93 23 -127 35 -66 79 -110 140 -140 110 -54 255 -29 339 59 32 35 73
104 73 125 0 9 21 13 75 13 l75 0 0 -29 c0 -45 29 -68 80 -62 22 3 50 40 50
67 0 20 5 24 30 24 30 0 30 -1 30 -54 0 -66 26 -106 70 -106 43 0 70 40 70
105 l0 52 47 6 c74 8 104 59 64 108 l-19 24 -286 3 c-217 2 -286 6 -286 15 0
21 -41 91 -73 125 -65 67 -190 104 -280 82z m162 -157 c50 -38 66 -71 66 -133
0 -44 -5 -66 -21 -86 -76 -102 -202 -102 -278 0 -29 39 -29 133 0 172 60 81
160 101 233 47z"/>
<path d="M2692 819 c-52 -26 -86 -69 -102 -128 -32 -122 61 -241 189 -241 87
0 146 37 182 115 77 166 -103 336 -269 254z m141 -140 c45 -61 -38 -133 -95
-82 -26 23 -24 78 5 98 30 22 66 15 90 -16z"/>
<path d="M2202 3157 c-6 -6 -13 -24 -17 -39 -10 -39 34 -83 73 -73 15 4 33 11
39 17 18 15 16 73 -3 92 -19 19 -77 21 -92 3z"/>
<path d="M420 3090 c-25 -25 -26 -72 -2 -93 40 -36 112 -6 112 46 0 29 -39 67
-68 67 -12 0 -31 -9 -42 -20z"/>
<path d="M2712 3099 c-69 -20 -132 -111 -132 -190 0 -124 128 -222 249 -189
141 38 194 208 98 317 -56 63 -133 85 -215 62z m116 -146 c27 -37 5 -101 -36
-104 -33 -3 -47 2 -64 23 -25 28 -22 55 8 84 19 20 31 24 52 19 15 -3 33 -13
40 -22z"/>
<path d="M3030 2312 c-67 -21 -66 -106 1 -127 26 -9 67 18 75 50 11 44 -34 90
-76 77z"/>
<path d="M2602 1757 c-12 -13 -22 -33 -22 -45 0 -31 35 -62 68 -62 57 0 83 69
42 110 -27 27 -62 25 -88 -3z"/>
<path d="M3024 1580 c-43 -13 -101 -80 -110 -125 -13 -71 30 -155 92 -181 108
-45 221 20 231 133 12 118 -100 207 -213 173z m81 -154 c0 -29 -31 -44 -50
-25 -23 23 -9 51 24 47 18 -2 26 -9 26 -22z"/>
<path d="M216 1358 c-22 -31 -20 -64 4 -88 40 -40 110 -11 110 45 0 57 -83 88
-114 43z"/>
<path d="M544 1101 c-91 -56 -106 -181 -30 -257 66 -66 164 -65 231 1 75 76
54 215 -39 259 -47 22 -123 21 -162 -3z m111 -141 c0 -18 -6 -26 -23 -28 -24
-4 -38 18 -28 44 3 9 15 14 28 12 17 -2 23 -10 23 -28z"/>
<path d="M1804 771 c-94 -57 -111 -170 -37 -252 80 -88 212 -69 264 39 54 109
-23 232 -145 232 -32 0 -62 -7 -82 -19z m105 -125 c16 -20 3 -46 -24 -46 -13
0 -26 7 -29 16 -7 19 10 44 29 44 7 0 18 -6 24 -14z"/>
<path d="M220 510 c-41 -41 -13 -110 45 -110 58 0 86 69 45 110 -11 11 -31 20
-45 20 -14 0 -34 -9 -45 -20z"/>
<path d="M420 510 c-25 -25 -26 -72 -2 -93 17 -15 69 -17 545 -17 l526 0 15
22 c22 31 20 64 -4 88 -19 19 -33 20 -540 20 -507 0 -521 -1 -540 -20z"/>
</g>
</svg>
