<svg xmlns="http://www.w3.org/2000/svg" xmlns:xlink="http://www.w3.org/1999/xlink" width="440" zoomAndPan="magnify" viewBox="0 0 330 159.000002" height="212" preserveAspectRatio="xMidYMid meet" version="1.0"><defs><filter x="0%" y="0%" width="100%" height="100%" id="873ea0c72e"><feColorMatrix values="0 0 0 0 1 0 0 0 0 1 0 0 0 0 1 0 0 0 1 0" color-interpolation-filters="sRGB"/></filter><g/><clipPath id="80fc7f526e"><path d="M 1.03125 0.046875 L 159 0.046875 L 159 158.007812 L 1.03125 158.007812 Z M 1.03125 0.046875 " clip-rule="nonzero"/></clipPath><clipPath id="516fdcc962"><path d="M 307 99 L 328.96875 99 L 328.96875 121 L 307 121 Z M 307 99 " clip-rule="nonzero"/></clipPath><mask id="87246aaba9"><g filter="url(#873ea0c72e)"><rect x="-33" width="396" fill="#000000" y="-15.9" height="190.800002" fill-opacity="0.698"/></g></mask><clipPath id="ff3c24c4b3"><path d="M 0.660156 0.480469 L 21.96875 0.480469 L 21.96875 21.796875 L 0.660156 21.796875 Z M 0.660156 0.480469 " clip-rule="nonzero"/></clipPath><clipPath id="cbe782a021"><rect x="0" width="22" y="0" height="22"/></clipPath></defs><g clip-path="url(#80fc7f526e)"><path stroke-linecap="butt" transform="matrix(1.531841, 0, 0, 1.534941, 1.055078, 0.0454513)" fill="none" stroke-linejoin="miter" d="M 92.622163 72.413095 C 89.021512 80.643254 85.112306 86.916397 79.665429 92.077424 C 73.603992 97.861948 66.40014 100.93108 58.143122 101.643648 C 51.334526 102.221337 44.701881 101.422243 38.158488 99.465226 C 31.479943 97.505665 25.418507 94.436533 20.150132 89.764123 C 15.79977 85.85009 12.461773 81.17768 9.870936 75.927582 C 5.875029 67.87302 3.194941 59.41891 1.965823 50.476183 C 1.175312 44.694204 1.131961 38.952943 2.623733 33.300752 C 4.028803 27.875057 6.884843 23.334981 10.837399 19.464211 C 14.746605 15.639248 19.270369 12.70245 24.100138 10.254271 C 31.525844 6.561642 39.300904 3.802986 47.471221 2.334587 C 53.310804 1.265736 59.152937 1.001067 65.040971 2.199708 C 70.571999 3.357631 75.317617 5.983953 79.446126 9.854724 C 83.926539 14.03597 87.264537 19.064664 89.985425 24.536167 C 93.10667 30.855117 95.302251 37.484544 96.312065 44.516062 C 97.278529 51.499227 96.839923 58.395867 94.952896 65.20598 C 94.073134 68.140233 93.060769 70.944696 92.622163 72.413095 Z M 92.622163 72.413095 " stroke="#262627" stroke-width="1" stroke-opacity="1" stroke-miterlimit="4"/></g><path fill="#262627" d="M 77.648438 66.414062 L 77.648438 62.382812 L 98.570312 62.382812 L 98.570312 66.414062 L 90.230469 66.414062 L 90.230469 89.359375 L 86.058594 89.359375 L 86.058594 66.414062 Z M 133.695312 89.632812 C 131.472656 89.632812 129.519531 88.539062 128.578125 87.175781 L 128.578125 97.144531 L 124.609375 97.144531 L 124.609375 69.894531 L 128.578125 69.894531 L 128.578125 72.148438 C 129.320312 70.851562 131.472656 69.621094 133.761719 69.621094 C 139.347656 69.621094 142.308594 73.308594 142.308594 79.59375 C 142.308594 85.808594 139.277344 89.628906 133.695312 89.628906 Z M 138.132812 79.59375 C 138.132812 77.613281 137.664062 76.042969 136.789062 74.882812 C 135.847656 73.71875 134.703125 73.105469 133.289062 73.105469 C 131.878906 73.105469 130.664062 73.652344 129.789062 74.882812 C 128.847656 76.042969 128.445312 77.613281 128.445312 79.59375 C 128.445312 81.574219 128.917969 83.144531 129.789062 84.304688 C 130.734375 85.464844 131.878906 86.011719 133.289062 86.011719 C 134.703125 86.011719 135.914062 85.464844 136.789062 84.304688 C 137.660156 83.144531 138.132812 81.574219 138.132812 79.59375 Z M 163.429688 80.753906 L 149.910156 80.753906 C 149.910156 83.828125 151.65625 86.082031 154.617188 86.082031 C 156.769531 86.082031 158.65625 84.855469 159.597656 82.804688 L 162.960938 84.167969 C 161.011719 87.992188 158.789062 89.632812 154.550781 89.632812 C 148.226562 89.632812 145.671875 84.238281 145.671875 79.660156 C 145.671875 75.015625 148.292969 69.6875 154.550781 69.6875 C 160.675781 69.6875 163.363281 74.742188 163.363281 79.046875 L 163.363281 80.75 L 163.429688 80.75 Z M 149.976562 77.40625 L 159.257812 77.40625 C 158.925781 75.019531 157.308594 73.171875 154.617188 73.171875 C 152.128906 73.171875 150.445312 74.882812 149.976562 77.410156 Z M 166.664062 73.445312 L 166.664062 69.894531 L 169.152344 69.894531 L 169.152344 68.871094 C 169.152344 64.292969 171.570312 62.039062 175.542969 62.039062 C 176.820312 62.039062 177.832031 62.246094 178.707031 62.722656 L 177.898438 66.136719 C 177.222656 65.796875 176.484375 65.59375 175.675781 65.59375 C 173.996094 65.59375 173.117188 66.617188 173.117188 68.664062 L 173.117188 69.960938 L 177.359375 69.960938 L 177.359375 73.515625 L 173.121094 73.515625 L 173.121094 89.359375 L 169.152344 89.359375 L 169.152344 73.515625 L 166.664062 73.515625 Z M 179.851562 79.59375 C 179.851562 76.792969 180.65625 74.402344 182.40625 72.488281 C 184.089844 70.578125 186.441406 69.621094 189.269531 69.621094 C 192.09375 69.621094 194.382812 70.578125 196.066406 72.488281 C 197.746094 74.402344 198.621094 76.792969 198.621094 79.59375 C 198.621094 82.390625 197.746094 84.78125 196.066406 86.695312 C 194.382812 88.605469 192.09375 89.566406 189.269531 89.566406 C 186.441406 89.566406 184.089844 88.605469 182.40625 86.695312 C 180.726562 84.851562 179.847656 82.460938 179.847656 79.59375 Z M 184.019531 79.59375 C 184.019531 81.371094 184.492188 82.871094 185.367188 84.167969 C 186.308594 85.464844 187.585938 86.082031 189.203125 86.082031 C 190.816406 86.082031 192.09375 85.46875 193.035156 84.167969 C 193.976562 82.871094 194.449219 81.371094 194.449219 79.59375 C 194.449219 77.816406 193.976562 76.316406 193.035156 75.085938 C 192.09375 73.789062 190.816406 73.171875 189.203125 73.171875 C 187.585938 73.171875 186.308594 73.855469 185.367188 75.085938 C 184.492188 76.382812 184.019531 77.886719 184.019531 79.59375 Z M 206.359375 89.292969 L 202.390625 89.292969 L 202.390625 69.894531 L 206.359375 69.894531 L 206.359375 73.105469 C 207.636719 70.851562 209.855469 69.554688 212.011719 69.554688 C 212.882812 69.554688 213.691406 69.691406 214.429688 70.03125 L 213.761719 73.71875 C 213.152344 73.308594 212.414062 73.171875 211.539062 73.171875 C 210.125 73.171875 208.914062 73.925781 207.90625 75.496094 C 206.894531 77.066406 206.359375 79.25 206.359375 82.121094 Z M 218.46875 69.894531 L 222.441406 69.894531 L 222.441406 73.171875 C 223.988281 70.785156 225.871094 69.554688 228.226562 69.554688 C 230.78125 69.554688 232.933594 71.125 233.472656 73.582031 C 234.816406 70.988281 236.972656 69.550781 239.394531 69.550781 C 242.824219 69.550781 244.84375 71.875 244.84375 75.355469 L 244.84375 89.222656 L 240.871094 89.222656 L 240.871094 76.246094 C 240.871094 74.195312 239.796875 73.105469 238.046875 73.105469 C 235.558594 73.105469 233.605469 76.382812 233.605469 81.503906 L 233.605469 89.292969 L 229.636719 89.292969 L 229.636719 76.316406 C 229.636719 74.265625 228.5625 73.171875 226.8125 73.171875 C 224.253906 73.171875 222.371094 76.453125 222.371094 81.984375 L 222.371094 89.359375 L 218.402344 89.359375 L 218.402344 69.894531 Z M 120.976562 69.894531 L 116.402344 69.894531 L 109.878906 84.101562 L 103.753906 69.898438 L 99.246094 69.898438 L 107.589844 89.222656 L 103.953125 97.148438 L 108.527344 97.148438 L 120.976562 69.898438 Z M 120.976562 69.894531 " fill-opacity="1" fill-rule="nonzero"/><g clip-path="url(#516fdcc962)"><g mask="url(#87246aaba9)"><g transform="matrix(1, 0, 0, 1, 307, 99)"><g clip-path="url(#cbe782a021)"><g clip-path="url(#ff3c24c4b3)"><path fill="#000000" d="M 21.476562 18.898438 L 14.601562 12.023438 C 15.332031 10.863281 15.757812 9.5 15.757812 8.03125 C 15.757812 3.867188 12.371094 0.480469 8.207031 0.480469 C 4.042969 0.480469 0.660156 3.867188 0.660156 8.03125 C 0.660156 12.195312 4.046875 15.582031 8.207031 15.582031 C 9.675781 15.582031 11.039062 15.152344 12.199219 14.429688 L 19.074219 21.300781 C 19.390625 21.617188 19.828125 21.796875 20.273438 21.796875 C 21.214844 21.796875 21.976562 21.035156 21.976562 20.101562 C 21.976562 19.652344 21.792969 19.214844 21.476562 18.898438 Z M 1.546875 8.03125 C 1.546875 4.359375 4.535156 1.371094 8.207031 1.371094 C 11.882812 1.371094 14.871094 4.359375 14.871094 8.03125 C 14.871094 11.703125 11.882812 14.691406 8.207031 14.691406 C 4.535156 14.691406 1.546875 11.703125 1.546875 8.03125 Z M 20.273438 20.910156 C 20.0625 20.910156 19.851562 20.824219 19.703125 20.671875 L 12.9375 13.910156 C 13.359375 13.566406 13.746094 13.183594 14.085938 12.761719 L 20.847656 19.523438 C 21 19.675781 21.085938 19.886719 21.085938 20.097656 C 21.085938 20.546875 20.722656 20.910156 20.273438 20.910156 Z M 20.273438 20.910156 " fill-opacity="1" fill-rule="nonzero"/></g><path fill="#000000" d="M 4.300781 8.03125 L 5.914062 5.613281 C 6.050781 5.40625 5.992188 5.132812 5.789062 4.996094 C 5.589844 4.863281 5.3125 4.914062 5.175781 5.121094 L 3.398438 7.785156 C 3.296875 7.933594 3.296875 8.128906 3.398438 8.277344 L 5.175781 10.941406 C 5.261719 11.070312 5.402344 11.140625 5.542969 11.140625 C 5.628906 11.140625 5.714844 11.117188 5.789062 11.0625 C 5.992188 10.929688 6.050781 10.652344 5.914062 10.449219 Z M 4.300781 8.03125 " fill-opacity="1" fill-rule="nonzero"/><path fill="#000000" d="M 9.203125 4.046875 C 8.964844 3.984375 8.726562 4.132812 8.667969 4.371094 L 6.890625 11.476562 C 6.832031 11.714844 6.976562 11.957031 7.214844 12.015625 C 7.25 12.023438 7.285156 12.027344 7.320312 12.027344 C 7.519531 12.027344 7.699219 11.894531 7.75 11.691406 L 9.527344 4.585938 C 9.585938 4.347656 9.445312 4.105469 9.203125 4.046875 Z M 9.203125 4.046875 " fill-opacity="1" fill-rule="nonzero"/><path fill="#000000" d="M 13.019531 7.785156 L 11.242188 5.121094 C 11.105469 4.914062 10.828125 4.863281 10.628906 4.996094 C 10.421875 5.132812 10.367188 5.410156 10.503906 5.613281 L 12.117188 8.03125 L 10.503906 10.449219 C 10.367188 10.652344 10.421875 10.929688 10.625 11.066406 C 10.703125 11.117188 10.789062 11.140625 10.871094 11.140625 C 11.015625 11.140625 11.15625 11.070312 11.242188 10.941406 L 13.019531 8.277344 C 13.121094 8.128906 13.121094 7.933594 13.019531 7.785156 Z M 13.019531 7.785156 " fill-opacity="1" fill-rule="nonzero"/></g></g></g></g><g fill="#000000" fill-opacity="1"><g transform="translate(150.894076, 116.021371)"><g><path d="M 17.75 -14.054688 L 14.539062 -2.488281 L 10.882812 -14.054688 L 9.15625 -14.054688 L 5.523438 -2.488281 L 2.308594 -14.054688 L 0.5625 -14.054688 L 4.636719 0 L 6.226562 0 L 10.019531 -11.644531 L 13.835938 0 L 15.421875 0 L 19.496094 -14.054688 Z M 17.75 -14.054688 "/></g></g></g><g fill="#000000" fill-opacity="1"><g transform="translate(170.931086, 116.021371)"><g><path d="M 5.5 -10.542969 C 3.210938 -10.542969 0.664062 -8.894531 0.664062 -5.222656 C 0.664062 -1.507812 3.210938 0.140625 5.5 0.140625 C 7.792969 0.140625 10.359375 -1.507812 10.359375 -5.222656 C 10.359375 -8.894531 7.792969 -10.542969 5.5 -10.542969 Z M 8.796875 -5.222656 C 8.796875 -2.449219 7.1875 -1.203125 5.5 -1.203125 C 3.816406 -1.203125 2.207031 -2.449219 2.207031 -5.222656 C 2.207031 -7.972656 3.816406 -9.195312 5.5 -9.195312 C 7.1875 -9.195312 8.796875 -7.972656 8.796875 -5.222656 Z M 8.796875 -5.222656 "/></g></g></g><g fill="#000000" fill-opacity="1"><g transform="translate(181.933373, 116.021371)"><g><path d="M 6.34375 -10.542969 C 4.335938 -10.542969 3.113281 -9.316406 2.769531 -7.910156 L 2.769531 -10.441406 L 1.164062 -10.441406 L 1.164062 0 L 2.769531 0 L 2.769531 -6.105469 C 3.113281 -7.929688 4.335938 -9.097656 6.464844 -9.097656 C 6.605469 -9.097656 6.785156 -9.097656 7.089844 -9.078125 L 7.089844 -10.5 C 6.785156 -10.542969 6.566406 -10.542969 6.34375 -10.542969 Z M 6.34375 -10.542969 "/></g></g></g><g fill="#000000" fill-opacity="1"><g transform="translate(189.562691, 116.021371)"><g><path d="M 8.734375 0 L 10.5625 0 L 5.523438 -5.921875 L 9.917969 -10.441406 L 8.03125 -10.441406 L 2.769531 -4.980469 L 2.769531 -14.175781 L 1.164062 -14.175781 L 1.164062 0 L 2.769531 0 L 2.769531 -3.09375 L 4.496094 -4.878906 Z M 8.734375 0 "/></g></g></g><g fill="#000000" fill-opacity="1"><g transform="translate(200.384277, 116.021371)"><g><path d="M 7.371094 -7.769531 L 8.855469 -7.769531 C 8.433594 -9.578125 6.96875 -10.542969 4.800781 -10.542969 C 2.449219 -10.542969 0.921875 -9.457031 0.921875 -7.691406 C 0.921875 -6.226562 1.867188 -5.382812 3.796875 -4.917969 L 5.621094 -4.496094 C 6.785156 -4.21875 7.46875 -3.9375 7.46875 -2.890625 C 7.46875 -1.6875 6.324219 -1.125 4.898438 -1.125 C 3.535156 -1.125 2.371094 -1.605469 2.066406 -3.050781 L 0.5625 -3.050781 C 0.824219 -0.84375 2.570312 0.140625 4.878906 0.140625 C 7.089844 0.140625 9.078125 -0.742188 9.078125 -2.871094 C 9.078125 -4.800781 7.871094 -5.199219 5.945312 -5.640625 L 4.257812 -6.042969 C 2.972656 -6.34375 2.449219 -6.808594 2.449219 -7.652344 C 2.449219 -8.59375 3.292969 -9.296875 4.800781 -9.296875 C 6.105469 -9.296875 7.007812 -8.855469 7.371094 -7.769531 Z M 7.371094 -7.769531 "/></g></g></g><g fill="#000000" fill-opacity="1"><g transform="translate(210.021314, 116.021371)"><g><path d="M 6.285156 -10.542969 C 4.699219 -10.542969 3.394531 -9.757812 2.769531 -8.472656 L 2.769531 -10.441406 L 1.164062 -10.441406 L 1.164062 3.816406 L 2.769531 3.816406 L 2.769531 -2.089844 C 3.292969 -0.84375 4.476562 0.140625 6.246094 0.140625 C 8.472656 0.140625 10.902344 -1.484375 10.902344 -5.222656 C 10.902344 -8.914062 8.472656 -10.542969 6.285156 -10.542969 Z M 5.984375 -1.203125 C 4.257812 -1.203125 2.691406 -2.511719 2.691406 -5.222656 C 2.691406 -8.011719 4.257812 -9.195312 5.984375 -9.195312 C 7.730469 -9.195312 9.335938 -8.011719 9.335938 -5.222656 C 9.335938 -2.429688 7.730469 -1.203125 5.984375 -1.203125 Z M 5.984375 -1.203125 "/></g></g></g><g fill="#000000" fill-opacity="1"><g transform="translate(221.585759, 116.021371)"><g><path d="M 9.519531 -1.808594 L 9.519531 -6.566406 C 9.519531 -9.457031 8.171875 -10.542969 5.402344 -10.542969 C 2.992188 -10.542969 1.527344 -9.617188 1.304688 -7.75 L 2.832031 -7.75 C 3.011719 -8.753906 3.796875 -9.316406 5.382812 -9.316406 C 7.027344 -9.316406 7.910156 -8.753906 7.910156 -6.949219 L 7.910156 -6.808594 C 7.1875 -6.425781 5.582031 -6.226562 4.335938 -6.042969 C 1.90625 -5.664062 0.664062 -4.820312 0.664062 -2.972656 C 0.664062 -0.902344 2.128906 0.140625 4.078125 0.140625 C 6.625 0.140625 7.769531 -1.585938 8.050781 -2.148438 L 8.050781 -1.40625 C 8.050781 -0.320312 8.632812 0.0820312 9.617188 0.0820312 C 9.898438 0.0820312 10.058594 0.0585938 10.28125 -0.0390625 L 10.28125 -1.023438 C 9.71875 -1.003906 9.519531 -1.246094 9.519531 -1.808594 Z M 7.910156 -3.332031 C 7.652344 -2.792969 6.585938 -1.0625 4.4375 -1.0625 C 3.050781 -1.0625 2.269531 -1.847656 2.269531 -3.011719 C 2.269531 -4.117188 2.832031 -4.71875 4.539062 -5 C 5.921875 -5.242188 7.308594 -5.460938 7.910156 -5.78125 Z M 7.910156 -3.332031 "/></g></g></g><g fill="#000000" fill-opacity="1"><g transform="translate(232.327045, 116.021371)"><g><path d="M 5.5625 -1.203125 C 3.773438 -1.203125 2.207031 -2.449219 2.207031 -5.199219 C 2.207031 -7.929688 3.753906 -9.214844 5.542969 -9.214844 C 7.007812 -9.214844 7.890625 -8.554688 8.332031 -7.328125 L 9.820312 -7.328125 C 9.214844 -9.738281 7.429688 -10.542969 5.523438 -10.542969 C 3.132812 -10.542969 0.664062 -8.9375 0.664062 -5.199219 C 0.664062 -1.464844 3.152344 0.140625 5.542969 0.140625 C 7.449219 0.140625 9.296875 -0.664062 9.898438 -3.152344 L 8.414062 -3.152344 C 7.953125 -1.847656 7.066406 -1.203125 5.5625 -1.203125 Z M 5.5625 -1.203125 "/></g></g></g><g fill="#000000" fill-opacity="1"><g transform="translate(242.827396, 116.021371)"><g><path d="M 10.179688 -5.140625 C 10.179688 -8.875 8.03125 -10.542969 5.523438 -10.542969 C 3.050781 -10.542969 0.664062 -8.875 0.664062 -5.199219 C 0.664062 -1.546875 2.953125 0.140625 5.542969 0.140625 C 7.628906 0.140625 8.996094 -0.601562 9.820312 -2.328125 L 8.332031 -2.328125 C 7.710938 -1.445312 6.925781 -1.105469 5.621094 -1.105469 C 3.734375 -1.105469 2.410156 -2.167969 2.230469 -4.636719 L 10.160156 -4.636719 C 10.179688 -4.820312 10.179688 -4.980469 10.179688 -5.140625 Z M 2.230469 -5.742188 C 2.410156 -8.152344 3.773438 -9.296875 5.523438 -9.296875 C 7.347656 -9.296875 8.59375 -8.070312 8.632812 -5.742188 Z M 2.230469 -5.742188 "/></g></g></g><g fill="#000000" fill-opacity="1"><g transform="translate(253.648982, 116.021371)"><g><path d="M 7.371094 -7.769531 L 8.855469 -7.769531 C 8.433594 -9.578125 6.96875 -10.542969 4.800781 -10.542969 C 2.449219 -10.542969 0.921875 -9.457031 0.921875 -7.691406 C 0.921875 -6.226562 1.867188 -5.382812 3.796875 -4.917969 L 5.621094 -4.496094 C 6.785156 -4.21875 7.46875 -3.9375 7.46875 -2.890625 C 7.46875 -1.6875 6.324219 -1.125 4.898438 -1.125 C 3.535156 -1.125 2.371094 -1.605469 2.066406 -3.050781 L 0.5625 -3.050781 C 0.824219 -0.84375 2.570312 0.140625 4.878906 0.140625 C 7.089844 0.140625 9.078125 -0.742188 9.078125 -2.871094 C 9.078125 -4.800781 7.871094 -5.199219 5.945312 -5.640625 L 4.257812 -6.042969 C 2.972656 -6.34375 2.449219 -6.808594 2.449219 -7.652344 C 2.449219 -8.59375 3.292969 -9.296875 4.800781 -9.296875 C 6.105469 -9.296875 7.007812 -8.855469 7.371094 -7.769531 Z M 7.371094 -7.769531 "/></g></g></g><g fill="#000000" fill-opacity="1"><g transform="translate(263.286019, 116.021371)"><g/></g></g><g fill="#000000" fill-opacity="1"><g transform="translate(268.767085, 116.021371)"><g><path d="M 2.832031 0 L 2.832031 -14.054688 L 1.164062 -14.054688 L 1.164062 0 Z M 2.832031 0 "/></g></g></g><g fill="#000000" fill-opacity="1"><g transform="translate(272.762445, 116.021371)"><g><path d="M 6.484375 -10.542969 C 4.238281 -10.542969 2.992188 -8.773438 2.769531 -8.011719 L 2.769531 -10.441406 L 1.164062 -10.441406 L 1.164062 0 L 2.769531 0 L 2.769531 -6.464844 C 2.972656 -7.449219 3.976562 -9.175781 5.964844 -9.175781 C 7.550781 -9.175781 8.59375 -8.453125 8.59375 -6.265625 L 8.59375 0 L 10.199219 0 L 10.199219 -6.324219 C 10.199219 -9.496094 8.574219 -10.542969 6.484375 -10.542969 Z M 6.484375 -10.542969 "/></g></g></g><g fill="#000000" fill-opacity="1"><g transform="translate(284.106044, 116.021371)"><g><path d="M 4.917969 -13.09375 C 5.339844 -13.09375 5.824219 -13.03125 6.125 -12.953125 L 6.125 -14.15625 C 5.742188 -14.296875 5.121094 -14.378906 4.597656 -14.378906 C 3.273438 -14.378906 1.847656 -13.996094 1.847656 -11.527344 L 1.847656 -10.441406 L 0.402344 -10.441406 L 0.402344 -9.15625 L 1.847656 -9.15625 L 1.847656 0 L 3.453125 0 L 3.453125 -9.15625 L 6.003906 -9.15625 L 6.003906 -10.441406 L 3.453125 -10.441406 L 3.453125 -11.507812 C 3.453125 -12.691406 3.914062 -13.09375 4.917969 -13.09375 Z M 4.917969 -13.09375 "/></g></g></g><g fill="#000000" fill-opacity="1"><g transform="translate(290.631125, 116.021371)"><g><path d="M 5.5 -10.542969 C 3.210938 -10.542969 0.664062 -8.894531 0.664062 -5.222656 C 0.664062 -1.507812 3.210938 0.140625 5.5 0.140625 C 7.792969 0.140625 10.359375 -1.507812 10.359375 -5.222656 C 10.359375 -8.894531 7.792969 -10.542969 5.5 -10.542969 Z M 8.796875 -5.222656 C 8.796875 -2.449219 7.1875 -1.203125 5.5 -1.203125 C 3.816406 -1.203125 2.207031 -2.449219 2.207031 -5.222656 C 2.207031 -7.972656 3.816406 -9.195312 5.5 -9.195312 C 7.1875 -9.195312 8.796875 -7.972656 8.796875 -5.222656 Z M 8.796875 -5.222656 "/></g></g></g><g fill="#000000" fill-opacity="1"><g transform="translate(301.626332, 116.021371)"><g/></g></g></svg>